<!-- Generated by graphviz version 2.42.4 (0)
 -->
<!-- Title: G Pages: 1 -->
<svg role="img" aria-label="外部提交与本地记录之间的窗口" width="493pt" height="448pt"
 viewBox="0.00 0.00 493.00 448.00" xmlns="http://www.w3.org/2000/svg" xmlns:xlink="http://www.w3.org/1999/xlink">
<g id="graph0" class="graph" transform="scale(1 1) rotate(0) translate(18 430)">
<title>外部提交与本地记录之间的窗口</title><desc>复现提交窗口：远端已经成功，本地结果仍未提交。不同恢复策略会产生不同副作用次数。</desc>
<!-- a -->
<g id="node1" class="node">
<title>a</title>
<path fill="#f5f7fa" stroke="#becbda" stroke-width="1.1" d="M308,-412C308,-412 167,-412 167,-412 161,-412 155,-406 155,-400 155,-400 155,-388 155,-388 155,-382 161,-376 167,-376 167,-376 308,-376 308,-376 314,-376 320,-382 320,-388 320,-388 320,-400 320,-400 320,-406 314,-412 308,-412"/>
<text text-anchor="middle" x="237.5" y="-390.6" font-family="Noto Sans CJK SC" font-size="13.00" fill="#203447">① 本地记录 SUBMITTED</text>
</g>
<!-- b -->
<g id="node2" class="node">
<title>b</title>
<path fill="#f5f7fa" stroke="#becbda" stroke-width="1.1" d="M296.5,-340C296.5,-340 178.5,-340 178.5,-340 172.5,-340 166.5,-334 166.5,-328 166.5,-328 166.5,-316 166.5,-316 166.5,-310 172.5,-304 178.5,-304 178.5,-304 296.5,-304 296.5,-304 302.5,-304 308.5,-310 308.5,-316 308.5,-316 308.5,-328 308.5,-328 308.5,-334 302.5,-340 296.5,-340"/>
<text text-anchor="middle" x="237.5" y="-318.6" font-family="Noto Sans CJK SC" font-size="13.00" fill="#203447">② 请求到达外部服务</text>
</g>
<!-- a&#45;&gt;b -->
<g id="edge1" class="edge">
<title>a&#45;&gt;b</title>
<path fill="none" stroke="#687f92" stroke-width="1.3" d="M237.5,-375.7C237.5,-367.14 237.5,-356.66 237.5,-347.3"/>
<polygon fill="#687f92" stroke="#687f92" stroke-width="1.3" points="239.95,-347.1 237.5,-340.1 235.05,-347.1 239.95,-347.1"/>
</g>
<!-- c -->
<g id="node3" class="node">
<title>c</title>
<path fill="#e8f3ed" stroke="#becbda" stroke-width="1.1" d="M290.5,-268C290.5,-268 184.5,-268 184.5,-268 178.5,-268 172.5,-262 172.5,-256 172.5,-256 172.5,-244 172.5,-244 172.5,-238 178.5,-232 184.5,-232 184.5,-232 290.5,-232 290.5,-232 296.5,-232 302.5,-238 302.5,-244 302.5,-244 302.5,-256 302.5,-256 302.5,-262 296.5,-268 290.5,-268"/>
<text text-anchor="middle" x="237.5" y="-246.6" font-family="Noto Sans CJK SC" font-size="13.00" fill="#203447">③ 外部效果已提交</text>
</g>
<!-- b&#45;&gt;c -->
<g id="edge2" class="edge">
<title>b&#45;&gt;c</title>
<path fill="none" stroke="#687f92" stroke-width="1.3" d="M237.5,-303.7C237.5,-295.14 237.5,-284.66 237.5,-275.3"/>
<polygon fill="#687f92" stroke="#687f92" stroke-width="1.3" points="239.95,-275.1 237.5,-268.1 235.05,-275.1 239.95,-275.1"/>
</g>
<!-- d -->
<g id="node4" class="node">
<title>d</title>
<path fill="#fff1df" stroke="#becbda" stroke-width="1.1" d="M300,-196C300,-196 175,-196 175,-196 169,-196 163,-190 163,-184 163,-184 163,-164 163,-164 163,-158 169,-152 175,-152 175,-152 300,-152 300,-152 306,-152 312,-158 312,-164 312,-164 312,-184 312,-184 312,-190 306,-196 300,-196"/>
<text text-anchor="middle" x="237.5" y="-177.6" font-family="Noto Sans CJK SC" font-size="13.00" fill="#203447">✕ 进程退出</text>
<text text-anchor="middle" x="237.5" y="-163.6" font-family="Noto Sans CJK SC" font-size="13.00" fill="#203447">本地仍是 SUBMITTED</text>
</g>
<!-- c&#45;&gt;d -->
<g id="edge3" class="edge">
<title>c&#45;&gt;d</title>
<path fill="none" stroke="#687f92" stroke-width="1.3" d="M237.5,-231.84C237.5,-223.33 237.5,-212.84 237.5,-203.2"/>
<polygon fill="#687f92" stroke="#687f92" stroke-width="1.3" points="239.95,-203.03 237.5,-196.03 235.05,-203.03 239.95,-203.03"/>
</g>
<!-- e -->
<g id="node5" class="node">
<title>e</title>
<path fill="#f5f7fa" stroke="#becbda" stroke-width="1.1" d="M290.5,-116C290.5,-116 184.5,-116 184.5,-116 178.5,-116 172.5,-110 172.5,-104 172.5,-104 172.5,-92 172.5,-92 172.5,-86 178.5,-80 184.5,-80 184.5,-80 290.5,-80 290.5,-80 296.5,-80 302.5,-86 302.5,-92 302.5,-92 302.5,-104 302.5,-104 302.5,-110 296.5,-116 290.5,-116"/>
<text text-anchor="middle" x="237.5" y="-94.6" font-family="Noto Sans CJK SC" font-size="13.00" fill="#203447">④ 新执行进程恢复</text>
</g>
<!-- d&#45;&gt;e -->
<g id="edge4" class="edge">
<title>d&#45;&gt;e</title>
<path fill="none" stroke="#687f92" stroke-width="1.3" d="M237.5,-151.99C237.5,-143.09 237.5,-132.66 237.5,-123.42"/>
<polygon fill="#687f92" stroke="#687f92" stroke-width="1.3" points="239.95,-123.31 237.5,-116.31 235.05,-123.31 239.95,-123.31"/>
</g>
<!-- x -->
<g id="node6" class="node">
<title>x</title>
<path fill="#f8e9e6" stroke="#becbda" stroke-width="1.1" d="M127,-44C127,-44 12,-44 12,-44 6,-44 0,-38 0,-32 0,-32 0,-12 0,-12 0,-6 6,0 12,0 12,0 127,0 127,0 133,0 139,-6 139,-12 139,-12 139,-32 139,-32 139,-38 133,-44 127,-44"/>
<text text-anchor="middle" x="69.5" y="-25.6" font-family="Noto Sans CJK SC" font-size="13.00" fill="#203447">普通重试</text>
<text text-anchor="middle" x="69.5" y="-11.6" font-family="Noto Sans CJK SC" font-size="13.00" fill="#203447">可能产生第二次效果</text>
</g>
<!-- e&#45;&gt;x -->
<g id="edge5" class="edge">
<title>e&#45;&gt;x</title>
<path fill="none" stroke="#687f92" stroke-width="1.3" d="M198.54,-79.84C176.29,-70.04 148.06,-57.6 123.68,-46.87"/>
<polygon fill="#687f92" stroke="#687f92" stroke-width="1.3" points="124.64,-44.61 117.25,-44.03 122.67,-49.1 124.64,-44.61"/>
</g>
<!-- y -->
<g id="node7" class="node">
<title>y</title>
<path fill="#e8f3ed" stroke="#becbda" stroke-width="1.1" d="M301,-44C301,-44 174,-44 174,-44 168,-44 162,-38 162,-32 162,-32 162,-12 162,-12 162,-6 168,0 174,0 174,0 301,0 301,0 307,0 313,-6 313,-12 313,-12 313,-32 313,-32 313,-38 307,-44 301,-44"/>
<text text-anchor="middle" x="237.5" y="-25.6" font-family="Noto Sans CJK SC" font-size="13.00" fill="#203447">相同动作键 / 查询对账</text>
<text text-anchor="middle" x="237.5" y="-11.6" font-family="Noto Sans CJK SC" font-size="13.00" fill="#203447">确认已有结果</text>
</g>
<!-- e&#45;&gt;y -->
<g id="edge6" class="edge">
<title>e&#45;&gt;y</title>
<path fill="none" stroke="#687f92" stroke-width="1.3" d="M237.5,-79.84C237.5,-71.33 237.5,-60.84 237.5,-51.2"/>
<polygon fill="#687f92" stroke="#687f92" stroke-width="1.3" points="239.95,-51.03 237.5,-44.03 235.05,-51.03 239.95,-51.03"/>
</g>
<!-- z -->
<g id="node8" class="node">
<title>z</title>
<path fill="#f5f7fa" stroke="#becbda" stroke-width="1.1" d="M445,-44C445,-44 348,-44 348,-44 342,-44 336,-38 336,-32 336,-32 336,-12 336,-12 336,-6 342,0 348,0 348,0 445,0 445,0 451,0 457,-6 457,-12 457,-12 457,-32 457,-32 457,-38 451,-44 445,-44"/>
<text text-anchor="middle" x="396.5" y="-25.6" font-family="Noto Sans CJK SC" font-size="13.00" fill="#203447">无可靠证据</text>
<text text-anchor="middle" x="396.5" y="-11.6" font-family="Noto Sans CJK SC" font-size="13.00" fill="#203447">保留 UNKNOWN</text>
</g>
<!-- e&#45;&gt;z -->
<g id="edge7" class="edge">
<title>e&#45;&gt;z</title>
<path fill="none" stroke="#687f92" stroke-width="1.3" d="M274.38,-79.84C295.34,-70.08 321.92,-57.71 344.92,-47"/>
<polygon fill="#687f92" stroke="#687f92" stroke-width="1.3" points="346,-49.21 351.31,-44.03 343.93,-44.76 346,-49.21"/>
</g>
</g>
</svg>
